RBDS011runT25_grf
version=1
nRows=21
nColumns=19
inDegrees=no
endheader
time	ground_force_r_vx	ground_force_r_vy	ground_force_r_vz	ground_force_r_px	ground_force_r_py	ground_force_r_pz	ground_force_r_mx	ground_force_r_my	ground_force_r_mz	ground_force_l_vx	ground_force_l_vy	ground_force_l_vz	ground_force_l_px	ground_force_l_py	ground_force_l_pz	ground_force_l_mx	ground_force_l_my	ground_force_l_mz
     22.49800000	      0.00000000	      0.00000000	      0.00000000	      0.00000000	      0.00000000	      0.00000000	      0.00000000	      0.00000000	      0.00000000	      0.00000000	      0.00000000	      0.00000000	      0.00000000	      0.00000000	      0.00000000	      0.00000000	      0.00000000	      0.00000000
     22.49900000	      0.00000000	      0.00000000	      0.00000000	      0.00000000	      0.00000000	      0.00000000	      0.00000000	      0.00000000	      0.00000000	      0.00000000	      0.00000000	      0.00000000	      0.00000000	      0.00000000	      0.00000000	      0.00000000	      0.00000000	      0.00000000
     22.50000000	      0.00000000	      0.00000000	      0.00000000	      0.00000000	      0.00000000	      0.00000000	      0.00000000	      0.00000000	      0.00000000	      0.00000000	      0.00000000	      0.00000000	      0.00000000	      0.00000000	      0.00000000	      0.00000000	      0.00000000	      0.00000000
     22.50100000	      0.00000000	      0.00000000	      0.00000000	      0.00000000	      0.00000000	      0.00000000	      0.00000000	      0.00000000	      0.00000000	    -14.69375652	     12.44580428	      2.03204500	      0.68738818	      0.00000000	      0.29568002	     -0.00000000	      3.27716398	     -0.00000000
     22.50200000	      0.00000000	      0.00000000	      0.00000000	      0.00000000	      0.00000000	      0.00000000	      0.00000000	      0.00000000	      0.00000000	    -29.38751304	     24.89160857	      4.06409000	      1.37477637	      0.00000000	      0.59136004	     -0.00000000	      6.55432796	     -0.00000000
     22.50300000	      0.00000000	      0.00000000	      0.00000000	      0.00000000	      0.00000000	      0.00000000	      0.00000000	      0.00000000	      0.00000000	    -44.08126957	     37.33741285	      6.09613500	      2.06216455	      0.00000000	      0.88704006	     -0.00000000	      9.83149194	     -0.00000000
     22.50400000	      0.00000000	      0.00000000	      0.00000000	      0.00000000	      0.00000000	      0.00000000	      0.00000000	      0.00000000	      0.00000000	    -49.20487709	     60.49992090	      7.31834976	      2.29131304	      0.00000000	      0.98610574	      0.00000000	     10.82577655	     -0.00000000
     22.50500000	      0.00000000	      0.00000000	      0.00000000	      0.00000000	      0.00000000	      0.00000000	      0.00000000	      0.00000000	      0.00000000	    -49.54341012	     89.02078083	      8.13564940	      2.29134168	      0.00000000	      0.98686424	      0.00000000	     10.67862149	     -0.00000000
     22.50600000	      0.00000000	      0.00000000	      0.00000000	      0.00000000	      0.00000000	      0.00000000	      0.00000000	      0.00000000	      0.00000000	    -49.88194315	    117.54164077	      8.95294904	      2.29137032	      0.00000000	      0.98762275	      0.00000000	     10.53146642	     -0.00000000
     22.50700000	      0.00000000	      0.00000000	      0.00000000	      0.00000000	      0.00000000	      0.00000000	      0.00000000	      0.00000000	      0.00000000	    -50.25502009	    145.98238110	      9.76658219	      2.29140223	      0.00000000	      0.98837742	      0.00000000	     10.38571077	     -0.00000000
     22.50800000	      0.00000000	      0.00000000	      0.00000000	      0.00000000	      0.00000000	      0.00000000	      0.00000000	      0.00000000	      0.00000000	    -50.69718485	    174.26288223	     10.57288238	      2.29144067	      0.00000000	      0.98912445	      0.00000000	     10.24275392	     -0.00000000
     22.50900000	      0.00000000	      0.00000000	      0.00000000	      0.00000000	      0.00000000	      0.00000000	      0.00000000	      0.00000000	      0.00000000	    -51.13934961	    202.54338336	     11.37918256	      2.29147912	      0.00000000	      0.98987147	      0.00000000	     10.09979708	     -0.00000000
     22.51000000	      0.00000000	      0.00000000	      0.00000000	      0.00000000	      0.00000000	      0.00000000	      0.00000000	      0.00000000	      0.00000000	    -51.58151437	    230.82388449	     12.18548274	      2.29151756	      0.00000000	      0.99061850	      0.00000000	      9.95684024	     -0.00000000
     22.51100000	      0.00000000	      0.00000000	      0.00000000	      0.00000000	      0.00000000	      0.00000000	      0.00000000	      0.00000000	      0.00000000	    -52.19358762	    258.59976486	     12.95043720	      2.29155978	      0.00000000	      0.99134308	      0.00000000	      9.82340744	     -0.00000000
     22.51200000	      0.00000000	      0.00000000	      0.00000000	      0.00000000	      0.00000000	      0.00000000	      0.00000000	      0.00000000	      0.00000000	    -52.80566087	    286.37564522	     13.71539166	      2.29160200	      0.00000000	      0.99206766	      0.00000000	      9.68997464	     -0.00000000
     22.51300000	      0.00000000	      0.00000000	      0.00000000	      0.00000000	      0.00000000	      0.00000000	      0.00000000	      0.00000000	      0.00000000	    -53.41773412	    314.15152559	     14.48034611	      2.29164422	      0.00000000	      0.99279224	      0.00000000	      9.55654184	     -0.00000000
     22.51400000	      0.00000000	      0.00000000	      0.00000000	      0.00000000	      0.00000000	      0.00000000	      0.00000000	      0.00000000	      0.00000000	    -54.18144946	    341.43311763	     15.20115062	      2.29168394	      0.00000000	      0.99349502	      0.00000000	      9.43279065	     -0.00000000
     22.51500000	      0.00000000	      0.00000000	      0.00000000	      0.00000000	      0.00000000	      0.00000000	      0.00000000	      0.00000000	      0.00000000	    -55.02098584	    368.46756552	     15.89988015	      2.29172242	      0.00000000	      0.99418691	      0.00000000	      9.31388027	     -0.00000000
     22.51600000	      0.00000000	      0.00000000	      0.00000000	      0.00000000	      0.00000000	      0.00000000	      0.00000000	      0.00000000	      0.00000000	    -55.86052223	    395.50201340	     16.59860968	      2.29176090	      0.00000000	      0.99487880	      0.00000000	      9.19496990	     -0.00000000
     22.51700000	      0.00000000	      0.00000000	      0.00000000	      0.00000000	      0.00000000	      0.00000000	      0.00000000	      0.00000000	      0.00000000	    -56.79111954	    422.22172721	     17.26936152	      2.29179514	      0.00000000	      0.99555673	      0.00000000	      9.08239232	     -0.00000000
     22.51800000	      0.00000000	      0.00000000	      0.00000000	      0.00000000	      0.00000000	      0.00000000	      0.00000000	      0.00000000	      0.00000000	    -57.90383868	    448.31197286	     17.88415800	      2.29182093	      0.00000000	      0.99620673	      0.00000000	      8.98248034	     -0.00000000
